<?xml version="1.0" encoding="utf-8"?>
<!-- Generator: Adobe Illustrator 23.0.3, SVG Export Plug-In . SVG Version: 6.00 Build 0)  -->
<svg version="1.1" id="Capa_1" xmlns="http://www.w3.org/2000/svg" xmlns:xlink="http://www.w3.org/1999/xlink" x="0px" y="0px"
	 viewBox="0 0 512 512" style="enable-background:new 0 0 512 512;" xml:space="preserve">
<style type="text/css">
	.st0{fill:#FFFFFF;}
</style>
<path class="st0" d="M447.3,73.4H512v119.7h-64.7V73.4z"/>
<path class="st0" d="M417.3,73.4H229.6c8.8,18.1,13.8,38.4,13.8,59.9c0,21.5-5,41.8-13.8,59.9h187.7L417.3,73.4L417.3,73.4z"/>
<path class="st0" d="M324.3,318.9H512v119.7H324.3L324.3,318.9z"/>
<path class="st0" d="M243.4,378.7c0,21.5-5,41.8-13.8,59.9h64.7V318.9h-64.7C238.4,336.9,243.4,357.3,243.4,378.7L243.4,378.7z"/>
<path class="st0" d="M213.4,133.3c0-58.8-47.9-106.7-106.7-106.7C47.9,26.6,0,74.5,0,133.3S47.9,240,106.7,240
	S213.4,192.1,213.4,133.3z M59.7,87.6h30v30h-30V87.6z M106.7,192.3c-25.9,0-47-21.1-47-47h94C153.7,171.2,132.6,192.3,106.7,192.3z
	 M153.7,117.6h-30v-30h30V117.6z"/>
<path class="st0" d="M106.7,272C47.9,272,0,319.9,0,378.7s47.9,106.7,106.7,106.7s106.7-47.9,106.7-106.7S165.5,272,106.7,272z
	 M59.7,333h30v30h-30V333z M74.7,422.7c0-17.7,14.3-32,32-32s32,14.3,32,32H74.7z M153.7,363h-30v-30h30V363z"/>
</svg>
