<?xml version="1.0" encoding="utf-8"?>
<!-- Generator: Adobe Illustrator 19.0.0, SVG Export Plug-In . SVG Version: 6.00 Build 0)  -->
<svg version="1.1" id="Layer_1" xmlns="http://www.w3.org/2000/svg" xmlns:xlink="http://www.w3.org/1999/xlink" x="0px" y="0px"
	 viewBox="0 0 304.3 100" style="enable-background:new 0 0 304.3 100;" xml:space="preserve">
<style type="text/css">
	.st0{fill:#FFFFFF;}
	.st1{fill:#DDB10A;}
	.st2{fill:#21409A;}
	.st3{fill-rule:evenodd;clip-rule:evenodd;fill:#FFFFFF;}
</style>
<g id="XMLID_114_">
	<g id="XMLID_243_">
		<path id="XMLID_313_" class="st0" d="M111.2,2.6V5c0,0.2-0.1,0.2-0.3,0.2l-1-0.1c-0.1,0-0.1,0-0.2-0.2l0-0.6v0h-3v12l0.6,0
			c0.1,0,0.2,0.1,0.2,0.3l-0.1,1c0,0.1-0.1,0.2-0.2,0.2h-3.4c-0.2,0-0.2-0.1-0.2-0.3l0.1-1c0-0.1,0-0.1,0.2-0.2l0.6,0v-12h-2.8
			l0,0.6c0,0.1-0.1,0.2-0.3,0.2l-1-0.1c-0.1,0-0.2-0.1-0.2-0.2V2.6H111.2z"/>
		<path id="XMLID_311_" class="st0" d="M125.9,16.5c0.1,0,0.2,0.1,0.2,0.3l-0.1,1c0,0.1-0.1,0.2-0.2,0.2h-3.4
			c-0.2,0-0.2-0.1-0.2-0.3l0.1-1c0-0.1,0-0.1,0.2-0.2l0.6,0v-5.3h-6.9v5.3l0.6,0c0.1,0,0.2,0.1,0.2,0.3l-0.1,1
			c0,0.1-0.1,0.2-0.2,0.2h-3.4c-0.2,0-0.2-0.1-0.2-0.3l0.1-1c0-0.1,0-0.1,0.2-0.2l0.6,0V4.1l-0.6,0c-0.1,0-0.2-0.1-0.2-0.3l0.1-1
			c0-0.1,0.1-0.2,0.2-0.2h3.4c0.2,0,0.2,0.1,0.2,0.3l-0.1,1c0,0.1,0,0.1-0.2,0.2l-0.6,0v5.2h6.9V4.1l-0.6,0c-0.1,0-0.2-0.1-0.2-0.3
			l0.1-1c0-0.1,0.1-0.2,0.2-0.2h3.4c0.2,0,0.2,0.1,0.2,0.3l-0.1,1c0,0.1,0,0.1-0.2,0.2l-0.6,0v12.3L125.9,16.5z"/>
		<path id="XMLID_309_" class="st0" d="M138.5,15.3c0.1,0,0.2,0.1,0.2,0.2v2.4h-9.6c-0.2,0-0.2-0.1-0.2-0.3l0.1-1
			c0-0.1,0-0.1,0.2-0.2l0.6,0V4.1l-0.6,0c-0.1,0-0.2-0.1-0.2-0.3l0.1-1c0-0.1,0.1-0.2,0.2-0.2h9.2V5c0,0.2-0.1,0.2-0.3,0.2l-1-0.1
			c-0.1,0-0.1,0-0.2-0.2l0-0.6h-4.9v4.7h5.6v1.8h-5.6v5.2h5.3l0-0.6c0-0.1,0.1-0.2,0.3-0.2L138.5,15.3z"/>
		<path id="XMLID_307_" class="st0" d="M161.2,2.6c0.2,0,0.2,0.1,0.2,0.3l-0.1,1c0,0.1,0,0.1-0.2,0.2l-0.6,0h-0.1v8.2
			c0,4-1.6,5.9-5.5,5.9c-3.8,0-5.5-1.3-5.5-5.9V4.1l-0.6,0c-0.1,0-0.2-0.1-0.2-0.3l0.1-1c0-0.1,0.1-0.2,0.2-0.2h3.4
			c0.2,0,0.2,0.1,0.2,0.3l-0.1,1c0,0.1,0,0.1-0.2,0.2l-0.6,0v8.6c0,2.4,0.7,3.8,3.2,3.8c2.8,0,3.4-1.7,3.4-3.8V4.1l-0.6,0
			c-0.1,0-0.2-0.1-0.2-0.3l0.1-1c0-0.1,0.1-0.2,0.2-0.2H161.2z"/>
		<path id="XMLID_305_" class="st0" d="M177.8,2.6c0.2,0,0.2,0.1,0.2,0.3l-0.1,1c0,0.1,0,0.1-0.2,0.2l-0.6,0H177v13.8h-1.5
			c-0.1,0-0.2,0-0.2-0.1l-8.1-11.3v9.9h0.2l0.6,0c0.1,0,0.2,0.1,0.2,0.3l-0.1,1c0,0.1-0.1,0.2-0.2,0.2h-3.4c-0.2,0-0.2-0.1-0.2-0.3
			l0.1-1c0-0.1,0-0.1,0.2-0.2l0.6,0V4.1l-0.6,0c-0.1,0-0.2-0.1-0.2-0.3l0.1-1c0-0.1,0.1-0.2,0.2-0.2h2.2c0.1,0,0.2,0.1,0.2,0.1
			l7.9,11.1V4.1l-0.6,0c-0.1,0-0.2-0.1-0.2-0.3l0.1-1c0-0.1,0.1-0.2,0.2-0.2H177.8z"/>
		<path id="XMLID_303_" class="st0" d="M184.8,16.5c0.1,0,0.2,0.1,0.2,0.3l-0.1,1c0,0.1-0.1,0.2-0.2,0.2h-3.4
			c-0.2,0-0.2-0.1-0.2-0.3l0.1-1c0-0.1,0-0.1,0.2-0.2l0.6,0V4.1l-0.6,0c-0.1,0-0.2-0.1-0.2-0.3l0.1-1c0-0.1,0.1-0.2,0.2-0.2h3.4
			c0.2,0,0.2,0.1,0.2,0.3l-0.1,1c0,0.1,0,0.1-0.2,0.2l-0.6,0v12.3L184.8,16.5z"/>
		<path id="XMLID_301_" class="st0" d="M200.9,2.6c0.2,0,0.2,0.1,0.2,0.3l-0.1,1c0,0.1,0,0.1-0.2,0.2l-0.6,0l-4.9,13.3
			c-0.1,0.3-0.3,0.5-0.6,0.5l-1.7-0.1c-0.1,0-0.1,0-0.1-0.1l-5.1-13.6l-0.6,0c-0.1,0-0.2-0.1-0.2-0.3l0.1-1c0-0.1,0.1-0.2,0.2-0.2
			h3.4c0.2,0,0.2,0.1,0.2,0.3l-0.1,1c0,0.1,0,0.1-0.2,0.2l-0.6,0l4,11.1h0.1l4-11.1l-0.6,0c-0.1,0-0.2-0.1-0.2-0.3l0.1-1
			c0-0.1,0.1-0.2,0.2-0.2H200.9z"/>
		<path id="XMLID_299_" class="st0" d="M212.8,15.3c0.1,0,0.2,0.1,0.2,0.2v2.4h-9.6c-0.2,0-0.2-0.1-0.2-0.3l0.1-1
			c0-0.1,0-0.1,0.2-0.2l0.6,0V4.1l-0.6,0c-0.1,0-0.2-0.1-0.2-0.3l0.1-1c0-0.1,0.1-0.2,0.2-0.2h9.2V5c0,0.2-0.1,0.2-0.3,0.2l-1-0.1
			c-0.1,0-0.1,0-0.2-0.2l0-0.6h-4.9v4.7h5.6v1.8h-5.6v5.2h5.3l0-0.6c0-0.1,0.1-0.2,0.3-0.2L212.8,15.3z"/>
		<path id="XMLID_296_" class="st0" d="M226.7,16.5c0.1,0,0.2,0.1,0.2,0.3l-0.1,1c0,0.1-0.1,0.2-0.2,0.2h-2.3l-3.4-5.9h-2.2v4.4
			l0.6,0c0.1,0,0.2,0.1,0.2,0.3l-0.1,1c0,0.1-0.1,0.2-0.2,0.2h-3.4c-0.2,0-0.2-0.1-0.2-0.3l0.1-1c0-0.1,0-0.1,0.2-0.2l0.6,0V4.1
			l-0.6,0c-0.1,0-0.2-0.1-0.2-0.3l0.1-1c0-0.1,0.1-0.2,0.2-0.2h4.5c3.9,0,5.7,1.5,5.7,4.6c0,2-1,3.7-2.9,4.4l2.8,4.8L226.7,16.5z
			 M220.6,10.2c2.1,0,3.4-0.9,3.4-3.1c0-2-1.2-2.8-3.2-2.8h-1.9v5.9H220.6z"/>
		<path id="XMLID_294_" class="st0" d="M239,13.7c0,2.5-1.8,4.3-5.3,4.3c-1.9,0-3.3-0.4-4.4-0.8v-2.4c0-0.2,0.1-0.3,0.4-0.3l1.2,0.1
			c0.1,0,0.2,0,0.2,0.2l0,1.1c0.9,0.2,1.9,0.3,2.5,0.3c1.8,0,3.2-0.6,3.2-2.3c0-1.8-0.7-2.1-3.7-3.2c-2.2-0.8-3.7-2-3.7-4.1
			c0-2.5,1.9-4.1,5.2-4.1c1.2,0,2.4,0.1,3.5,0.4v2.6c0,0.2-0.1,0.3-0.4,0.3l-1.2-0.1c-0.1,0-0.2,0-0.2-0.2l0-1.1
			c-0.5-0.1-1.1-0.1-1.6-0.1c-1.8,0-3,0.8-3,2.2c0,1.4,0.8,1.9,3.5,2.9C238,10.4,239,11.7,239,13.7z"/>
		<path id="XMLID_292_" class="st0" d="M245.4,16.5c0.1,0,0.2,0.1,0.2,0.3l-0.1,1c0,0.1-0.1,0.2-0.2,0.2H242c-0.2,0-0.2-0.1-0.2-0.3
			l0.1-1c0-0.1,0-0.1,0.2-0.2l0.6,0V4.1l-0.6,0c-0.1,0-0.2-0.1-0.2-0.3l0.1-1c0-0.1,0.1-0.2,0.2-0.2h3.4c0.2,0,0.2,0.1,0.2,0.3
			l-0.1,1c0,0.1,0,0.1-0.2,0.2l-0.6,0v12.3L245.4,16.5z"/>
		<path id="XMLID_290_" class="st0" d="M259,2.6V5c0,0.2-0.1,0.2-0.3,0.2l-1-0.1c-0.1,0-0.1,0-0.2-0.2l0-0.6v0h-3v12l0.6,0
			c0.1,0,0.2,0.1,0.2,0.3l-0.1,1c0,0.1-0.1,0.2-0.2,0.2h-3.4c-0.2,0-0.2-0.1-0.2-0.3l0.1-1c0-0.1,0-0.1,0.2-0.2l0.6,0v-12h-2.8
			l0,0.6c0,0.1-0.1,0.2-0.3,0.2l-1-0.1C248,5.1,248,5.1,248,5V2.6H259z"/>
		<path id="XMLID_288_" class="st0" d="M272.3,2.6c0.2,0,0.2,0.1,0.2,0.3l-0.1,1c0,0.1,0,0.1-0.2,0.2l-0.6,0l-4.3,8.4v3.9l0.6,0
			c0.1,0,0.2,0.1,0.2,0.3l-0.1,1c0,0.1-0.1,0.2-0.2,0.2h-3.4c-0.2,0-0.2-0.1-0.2-0.3l0.1-1c0-0.1,0-0.1,0.2-0.2l0.6,0v-3.9l-4.2-8.4
			l-0.6,0c-0.1,0-0.2-0.1-0.2-0.3l0.1-1c0-0.1,0.1-0.2,0.2-0.2h3.4c0.2,0,0.2,0.1,0.2,0.3l-0.1,1c0,0.1,0,0.1-0.2,0.2l-0.6,0
			l3.1,6.4h0.1l3.2-6.4l-0.6,0c-0.1,0-0.2-0.1-0.2-0.3l0.1-1c0-0.1,0.1-0.2,0.2-0.2H272.3z"/>
		<path id="XMLID_285_" class="st0" d="M292.3,10.3c0,5.2-2.3,7.8-6.2,7.8c-3.8,0-6.2-2.6-6.2-7.8c0-3.7,1.4-7.8,6.2-7.8
			C290.3,2.5,292.3,5.7,292.3,10.3z M282.3,10.2c0,2.6,0.6,5.9,3.8,5.9c2.7,0,3.9-2.3,3.9-5.9c0-2.6-0.7-5.9-3.8-5.9
			C282.9,4.3,282.3,7.7,282.3,10.2z"/>
		<path id="XMLID_283_" class="st0" d="M304.1,2.6V5c0,0.2-0.1,0.2-0.3,0.2l-1-0.1c-0.1,0-0.1,0-0.2-0.2l0-0.6h-4.9v4.7h5.4v1.8
			h-5.4v5.5l0.6,0c0.1,0,0.2,0.1,0.2,0.3l-0.1,1c0,0.1-0.1,0.2-0.2,0.2h-3.4c-0.2,0-0.2-0.1-0.2-0.3l0.1-1c0-0.1,0-0.1,0.2-0.2
			l0.6,0V4.1l-0.6,0c-0.1,0-0.2-0.1-0.2-0.3l0.1-1c0-0.1,0.1-0.2,0.2-0.2H304.1z"/>
		<g id="XMLID_267_">
			<path id="XMLID_281_" class="st0" d="M142,25c0.3,0,0.5,0.3,0.5,0.7l-0.1,2.2c0,0.1-0.1,0.3-0.3,0.3l-1.2,0.1l-7.4,29
				c-0.3,1-1,1.5-2,1.5l-3.4-0.1c-0.5,0-0.7-0.3-0.8-0.8l-5.9-25.5h0l-5.8,24.4c-0.2,0.9-0.8,2.1-2.3,2.1l-3.3-0.1
				c-0.4,0-0.7-0.2-0.8-0.8l-7.2-29.6l-1.3-0.1c-0.3,0-0.4-0.3-0.4-0.7l0.1-2.2c0-0.2,0.1-0.3,0.3-0.3h7.2c0.3,0,0.5,0.3,0.5,0.7
				l-0.1,2.2c0,0.1-0.1,0.3-0.3,0.3l-1.2,0.1l5.6,25.5h0l6.2-26.8c0.3-1.5,1.1-2.1,2.1-2l2.5,0.1c0.4,0,0.6,0.3,0.7,0.8l6.3,27.8h0
				l5.8-25.5l-1.3-0.1c-0.3,0-0.4-0.3-0.4-0.7l0.1-2.2c0-0.2,0.1-0.3,0.3-0.3H142z"/>
			<path id="XMLID_279_" class="st0" d="M166.2,53.2c0.2,0,0.3,0.1,0.3,0.3v5.3h-21.2c-0.3,0-0.5-0.3-0.5-0.7l0.1-2.2
				c0-0.1,0.1-0.3,0.3-0.3l1.3-0.1V28.4l-1.4-0.1c-0.3,0-0.4-0.3-0.4-0.7l0.1-2.2c0-0.2,0.1-0.3,0.3-0.3h20.4v5.3
				c0,0.3-0.3,0.5-0.7,0.5l-2.2-0.1c-0.1,0-0.3-0.1-0.3-0.3l-0.1-1.3h-10.9v10.3H164v4h-12.3v11.4h11.6l0.1-1.4
				c0-0.3,0.3-0.4,0.7-0.4L166.2,53.2z"/>
			<path id="XMLID_277_" class="st0" d="M191.3,49.6c0,5.5-4.1,9.5-11.7,9.5c-4.1,0-7.4-0.9-9.7-1.9V52c0-0.4,0.3-0.6,0.8-0.6
				l2.6,0.2c0.2,0,0.4,0.1,0.4,0.4l0.1,2.4c2.1,0.5,4.1,0.7,5.5,0.7c4,0,7.1-1.4,7.1-5c0-3.9-1.5-4.7-8.2-7.1
				c-4.9-1.8-8.3-4.3-8.3-9.2c0-5.5,4.1-9.1,11.5-9.1c2.7,0,5.3,0.3,7.7,0.9v5.7c0,0.4-0.3,0.6-0.8,0.6l-2.6-0.2
				c-0.2,0-0.4-0.1-0.4-0.4l-0.1-2.4c-1.2-0.1-2.4-0.2-3.4-0.2c-4.1,0-6.7,1.9-6.7,4.9c0,3.1,1.8,4.3,7.8,6.4
				C189.1,42.3,191.3,45.3,191.3,49.6z"/>
			<path id="XMLID_275_" class="st0" d="M217.4,25v5.3c0,0.3-0.3,0.5-0.7,0.5l-2.2-0.1c-0.1,0-0.3-0.1-0.3-0.3l-0.1-1.3v0h-6.6v26.5
				l1.4,0.1c0.3,0,0.4,0.3,0.4,0.7l-0.1,2.2c0,0.2-0.1,0.3-0.3,0.3h-7.5c-0.3,0-0.5-0.3-0.5-0.7l0.1-2.2c0-0.1,0.1-0.3,0.3-0.3
				l1.3-0.1V29.1h-6.2l-0.1,1.4c0,0.3-0.3,0.4-0.7,0.4l-2.2-0.1c-0.2,0-0.3-0.1-0.3-0.3V25H217.4z"/>
			<path id="XMLID_273_" class="st0" d="M241.9,53.2c0.2,0,0.3,0.1,0.3,0.3v5.3H221c-0.3,0-0.5-0.3-0.5-0.7l0.1-2.2
				c0-0.1,0.1-0.3,0.3-0.3l1.3-0.1V28.4l-1.4-0.1c-0.3,0-0.4-0.3-0.4-0.7l0.1-2.2c0-0.2,0.1-0.3,0.3-0.3h20.4v5.3
				c0,0.3-0.3,0.5-0.7,0.5l-2.2-0.1c-0.1,0-0.3-0.1-0.3-0.3l-0.1-1.3h-10.9v10.3h12.3v4h-12.3v11.4h11.6l0.1-1.4
				c0-0.3,0.3-0.4,0.7-0.4L241.9,53.2z"/>
			<path id="XMLID_270_" class="st0" d="M270.3,55.7c0.3,0,0.4,0.3,0.4,0.7l-0.1,2.2c0,0.2-0.1,0.3-0.3,0.3h-5l-7.4-13.1H253v9.8
				l1.4,0.1c0.3,0,0.4,0.3,0.4,0.7l-0.1,2.2c0,0.2-0.1,0.3-0.3,0.3h-7.5c-0.3,0-0.5-0.3-0.5-0.7l0.1-2.2c0-0.1,0.1-0.3,0.3-0.3
				l1.3-0.1V28.4l-1.4-0.1c-0.3,0-0.4-0.3-0.4-0.7l0.1-2.2c0-0.2,0.1-0.3,0.3-0.3h9.9c8.5,0,12.5,3.2,12.5,10.1
				c0,4.4-2.3,8.2-6.5,9.7l6.2,10.7L270.3,55.7z M256.8,41.9c4.7,0,7.4-2.1,7.4-6.8c0-4.5-2.6-6.3-7-6.3H253v13.1H256.8z"/>
			<path id="XMLID_268_" class="st0" d="M303.8,25c0.3,0,0.5,0.3,0.5,0.7l-0.1,2.2c0,0.1-0.1,0.3-0.3,0.3l-1.3,0.1h-0.4v30.6h-3.3
				c-0.2,0-0.3-0.1-0.5-0.3l-17.9-25v21.9h0.4l1.4,0.1c0.3,0,0.4,0.3,0.4,0.7l-0.1,2.2c0,0.2-0.1,0.3-0.3,0.3h-7.5
				c-0.3,0-0.5-0.3-0.5-0.7l0.1-2.2c0-0.1,0.1-0.3,0.3-0.3l1.3-0.1V28.4l-1.4-0.1c-0.3,0-0.4-0.3-0.4-0.7l0.1-2.2
				c0-0.2,0.1-0.3,0.3-0.3h4.8c0.3,0,0.4,0.1,0.5,0.3l17.5,24.4V28.4l-1.4-0.1c-0.3,0-0.4-0.3-0.4-0.7l0.1-2.2
				c0-0.2,0.1-0.3,0.3-0.3H303.8z"/>
		</g>
		<g id="XMLID_244_">
			<path id="XMLID_264_" class="st0" d="M126.1,92.1c0.3,0,0.4,0.3,0.3,0.6l-0.1,1.9c0,0.2-0.1,0.3-0.3,0.3h-6.5
				c-0.3,0-0.4-0.2-0.4-0.6l0.1-1.9c0-0.1,0.1-0.3,0.3-0.3l1-0.1l-1.5-4.1h-11.8l-1.4,4.1l1.2,0.1c0.3,0,0.4,0.3,0.3,0.6l-0.1,1.9
				c0,0.2-0.1,0.3-0.3,0.3h-6.3c-0.3,0-0.4-0.2-0.4-0.6l0.1-1.9c0-0.1,0.1-0.3,0.3-0.3l1-0.1l8.4-23.3l-1.1-0.1
				c-0.3,0-0.4-0.3-0.3-0.6l0.1-1.9c0-0.2,0.1-0.3,0.3-0.3h5.9l10,26.1L126.1,92.1z M117.9,84.4L113,70.6h0l-4.6,13.8H117.9z"/>
			<path id="XMLID_262_" class="st0" d="M149.7,65.8c0.3,0,0.4,0.2,0.4,0.6l-0.1,1.9c0,0.1-0.1,0.3-0.3,0.3l-1.1,0.1h-0.1v15.5
				c0,7.5-3,11.1-10.5,11.1c-7.2,0-10.3-2.4-10.3-11.1V68.7l-1.2-0.1c-0.3,0-0.4-0.3-0.3-0.6l0.1-1.9c0-0.2,0.1-0.3,0.3-0.3h6.4
				c0.3,0,0.4,0.2,0.4,0.6l-0.1,1.9c0,0.1-0.1,0.3-0.3,0.3l-1.1,0.1v16.2c0,4.6,1.4,7.1,6.1,7.1c5.2,0,6.4-3.2,6.4-7.1V68.7
				l-1.2-0.1c-0.3,0-0.4-0.3-0.3-0.6l0.1-1.9c0-0.2,0.1-0.3,0.3-0.3H149.7z"/>
			<path id="XMLID_260_" class="st0" d="M170.9,86.9c0,4.7-3.5,8.1-10,8.1c-3.5,0-6.3-0.7-8.3-1.6v-4.5c0-0.3,0.3-0.5,0.7-0.5
				l2.2,0.1c0.1,0,0.3,0.1,0.4,0.3l0.1,2c1.8,0.4,3.5,0.6,4.7,0.6c3.4,0,6.1-1.2,6.1-4.3c0-3.3-1.3-4-7-6.1
				c-4.2-1.6-7.1-3.7-7.1-7.8c0-4.7,3.5-7.8,9.9-7.8c2.3,0,4.5,0.2,6.6,0.7v4.9c0,0.3-0.3,0.5-0.7,0.5l-2.2-0.1
				c-0.1,0-0.3-0.1-0.4-0.3l-0.1-2c-1-0.1-2-0.2-3-0.2c-3.5,0-5.8,1.6-5.8,4.2c0,2.7,1.6,3.7,6.7,5.5
				C169,80.6,170.9,83.1,170.9,86.9z"/>
			<path id="XMLID_258_" class="st0" d="M193.8,65.8v4.6c0,0.3-0.2,0.4-0.6,0.4l-1.9-0.1c-0.1,0-0.3-0.1-0.3-0.3l-0.1-1.1v0h-5.7V92
				l1.2,0.1c0.3,0,0.4,0.3,0.3,0.6l-0.1,1.9c0,0.2-0.1,0.3-0.3,0.3H180c-0.3,0-0.4-0.2-0.4-0.6l0.1-1.9c0-0.1,0.1-0.3,0.3-0.3
				L181,92V69.3h-5.3l-0.1,1.2c0,0.3-0.3,0.4-0.6,0.3l-1.9-0.1c-0.2,0-0.3-0.1-0.3-0.3v-4.5H193.8z"/>
			<path id="XMLID_255_" class="st0" d="M217.1,92.1c0.3,0,0.4,0.3,0.3,0.6l-0.1,1.9c0,0.2-0.1,0.3-0.3,0.3h-4.3l-6.4-11.2h-4.1V92
				l1.2,0.1c0.3,0,0.4,0.3,0.3,0.6l-0.1,1.9c0,0.2-0.1,0.3-0.3,0.3H197c-0.3,0-0.4-0.2-0.4-0.6l0.1-1.9c0-0.1,0.1-0.3,0.3-0.3
				l1.1-0.1V68.7l-1.2-0.1c-0.3,0-0.4-0.3-0.3-0.6l0.1-1.9c0-0.2,0.1-0.3,0.3-0.3h8.4c7.3,0,10.7,2.8,10.7,8.7c0,3.8-2,7-5.5,8.3
				l5.3,9.2L217.1,92.1z M205.5,80.3c4,0,6.4-1.8,6.4-5.8c0-3.8-2.2-5.4-6-5.4h-3.6v11.2H205.5z"/>
			<path id="XMLID_252_" class="st0" d="M245,92.1c0.3,0,0.4,0.3,0.3,0.6l-0.1,1.9c0,0.2-0.1,0.3-0.3,0.3h-6.5
				c-0.3,0-0.4-0.2-0.4-0.6l0.1-1.9c0-0.1,0.1-0.3,0.3-0.3l1-0.1l-1.5-4.1h-11.8l-1.4,4.1l1.2,0.1c0.3,0,0.4,0.3,0.3,0.6l-0.1,1.9
				c0,0.2-0.1,0.3-0.3,0.3h-6.3c-0.3,0-0.4-0.2-0.4-0.6l0.1-1.9c0-0.1,0.1-0.3,0.3-0.3l1-0.1l8.4-23.3l-1.1-0.1
				c-0.3,0-0.4-0.3-0.3-0.6l0.1-1.9c0-0.2,0.1-0.3,0.3-0.3h5.9l10,26.1L245,92.1z M236.8,84.4l-4.9-13.8h0l-4.6,13.8H236.8z"/>
			<path id="XMLID_250_" class="st0" d="M265.9,90c0.2,0,0.3,0.1,0.3,0.3v4.6h-18.1c-0.3,0-0.4-0.2-0.4-0.6l0.1-1.9
				c0-0.1,0.1-0.3,0.3-0.3l1.1-0.1V68.7l-1.2-0.1c-0.3,0-0.4-0.3-0.3-0.6l0.1-1.9c0-0.2,0.1-0.3,0.3-0.3h6.4c0.3,0,0.4,0.2,0.4,0.6
				l-0.1,1.9c0,0.1-0.1,0.3-0.3,0.3l-1.1,0.1v22.7h10l0.1-1.2c0-0.3,0.3-0.4,0.6-0.3L265.9,90z"/>
			<path id="XMLID_248_" class="st0" d="M275.3,92.1c0.3,0,0.4,0.3,0.3,0.6l-0.1,1.9c0,0.2-0.1,0.3-0.3,0.3h-6.4
				c-0.3,0-0.4-0.2-0.4-0.6l0.1-1.9c0-0.1,0.1-0.3,0.3-0.3l1.1-0.1V68.7l-1.2-0.1c-0.3,0-0.4-0.3-0.3-0.6l0.1-1.9
				c0-0.2,0.1-0.3,0.3-0.3h6.4c0.3,0,0.4,0.2,0.4,0.6l-0.1,1.9c0,0.1-0.1,0.3-0.3,0.3l-1.1,0.1V92L275.3,92.1z"/>
			<path id="XMLID_245_" class="st0" d="M303.9,92.1c0.3,0,0.4,0.3,0.3,0.6l-0.1,1.9c0,0.2-0.1,0.3-0.3,0.3h-6.5
				c-0.3,0-0.4-0.2-0.4-0.6l0.1-1.9c0-0.1,0.1-0.3,0.3-0.3l1-0.1l-1.5-4.1h-11.8l-1.4,4.1l1.2,0.1c0.3,0,0.4,0.3,0.3,0.6l-0.1,1.9
				c0,0.2-0.1,0.3-0.3,0.3h-6.3c-0.3,0-0.4-0.2-0.4-0.6l0.1-1.9c0-0.1,0.1-0.3,0.3-0.3l1-0.1l8.4-23.3l-1.1-0.1
				c-0.3,0-0.4-0.3-0.3-0.6l0.1-1.9c0-0.2,0.1-0.3,0.3-0.3h5.9l10,26.1L303.9,92.1z M295.7,84.4l-4.9-13.8h0l-4.6,13.8H295.7z"/>
		</g>
	</g>
	<path id="XMLID_74_" class="st0" d="M79,69.9c-7.5,12.3-20.5,19.6-34.9,19.6c-14.4,0-27.4-7.3-34.9-19.6l-7.9,7.3
		c4.4,6.6,10.3,12.1,17.1,16c7.8,4.5,16.6,6.9,25.7,6.9c9,0,17.9-2.4,25.7-6.9c6.6-3.8,12.6-9.9,16.9-16.2L79,69.9z"/>
	<rect id="XMLID_73_" x="10" y="0" class="st1" width="68" height="2.6"/>
	<path id="XMLID_72_" class="st0" d="M78.1,27.2c-0.1,7.6,1.7,37.7-34,58.8C8.4,64.9,10.2,34.8,10,27.2V2.6h68V27.2z"/>
	<path id="XMLID_71_" class="st2" d="M44.1,84.4C11.5,64.9,11.4,37.6,11.4,28.5c0-0.5,0-0.9,0-1.3l0-24.6h65.4v24.6
		c0,0.4,0,0.8,0,1.3c0,4.5-0.1,13.8-4.2,24.2C67.5,65.5,57.9,76.1,44.1,84.4z"/>
	<path id="XMLID_70_" class="st1" d="M14.5,53.7C18.9,64.3,27.3,76.1,44.1,86c16.7-9.9,25.2-21.7,29.5-32.3L44.1,26.4L14.5,53.7z"/>
	<path id="XMLID_69_" class="st3" d="M38.5,9.3c0,4.4,0,8.7,0,13.1c-3.5-1.3-7.8-0.3-10,1.4c0-4.3,0-8.7,0-13
		C30.5,8.9,35.1,8,38.5,9.3z"/>
	<path id="XMLID_68_" class="st3" d="M17.5,9.3c0,4.4,0,8.7,0,13.1c3.5-1.3,7.8-0.3,10,1.4c0-4.3,0-8.7,0-13
		C25.5,8.9,20.9,8.1,17.5,9.3z"/>
	<path id="XMLID_67_" class="st0" d="M41.5,19.8L41.5,19.8c-0.5-0.1-0.9-0.1-1.2-0.1v-4.3c0.3,0,0.6,0,1.1,0.1l0.1,0
		c1,0,1.1-0.5,1.1-0.5c-0.2-0.5-0.7-0.8-1.1-0.8l0,0c-0.5-0.1-0.9-0.1-1.1-0.1v-3.6h-0.9v13.2c-4.8-1-8.5-0.5-11.5,1.7
		c-2.9-2.2-6.6-2.7-11.5-1.7V10.5h-0.9v3.6c-0.2,0-0.4,0-0.7,0.1V14c0-0.1-0.1-0.2-0.2-0.2L13.5,14c-0.1,0-0.2,0.1-0.2,0.2v1.5
		c0,0.1,0.1,0.2,0.2,0.2l1.2-0.1c0.1,0,0.2-0.1,0.2-0.2v-0.1c0.3,0,0.6,0,0.7-0.1v4.3c-0.2,0-0.4,0-0.7,0.1v-0.1
		c0-0.1-0.1-0.2-0.2-0.2l-1.2,0.1c-0.1,0-0.2,0.1-0.2,0.2v1.5c0,0.1,0.1,0.2,0.2,0.2l1.2-0.1c0.1,0,0.2-0.1,0.2-0.2V21
		c0.3,0,0.6,0,0.7-0.1v3.9l0.5-0.1c5-1.2,8.7-0.7,11.5,1.6l0.3,0.2l0.3-0.2c2.9-2.2,6.5-2.7,11.5-1.6l0.5,0.1v-3.9
		c0.3,0,0.6,0,1.1,0.1l0.1,0c1,0,1.1-0.5,1.1-0.5C42.5,20,41.9,19.8,41.5,19.8z"/>
	<g id="XMLID_212_">
		<path id="XMLID_233_" class="st2" d="M16.4,87c-0.5,0.6-1.3,0.7-2.1,0.1c-0.5-0.4-0.8-0.7-0.9-1.1l0.5-0.6c0,0,0.1,0,0.1,0
			l0.3,0.2c0,0,0,0,0,0.1L14,86.1c0.2,0.2,0.4,0.4,0.6,0.6c0.4,0.3,0.9,0.5,1.2,0.1c0.3-0.4,0.2-0.7-0.3-1.5
			c-0.4-0.6-0.6-1.2-0.1-1.7c0.5-0.6,1.2-0.7,2.1,0c0.3,0.2,0.6,0.5,0.8,0.8l-0.5,0.6c0,0-0.1,0-0.1,0l-0.3-0.2c0,0,0,0,0-0.1
			l0.2-0.3c-0.1-0.1-0.2-0.2-0.4-0.3c-0.5-0.4-0.9-0.4-1.2,0c-0.3,0.4-0.2,0.6,0.3,1.4C16.8,86,16.7,86.6,16.4,87z"/>
		<path id="XMLID_231_" class="st2" d="M21.1,90.6C21.1,90.7,21.1,90.7,21.1,90.6l-0.4,0.7l-2.6-1.5c0,0,0-0.1,0-0.1l0.2-0.3
			c0,0,0,0,0.1,0l0.2,0.1l2-3.3l-0.2-0.1c0,0,0-0.1,0-0.1l0.2-0.3c0,0,0,0,0.1,0l2.5,1.5l-0.4,0.6c0,0-0.1,0-0.1,0l-0.3-0.2
			c0,0,0,0,0-0.1l0.1-0.2l-1.3-0.8l-0.7,1.3l1.5,0.9l-0.3,0.5L20,88.4l-0.8,1.4l1.4,0.8l0.1-0.2c0,0,0.1,0,0.1,0L21.1,90.6z"/>
		<path id="XMLID_229_" class="st2" d="M26.5,93.2C26.5,93.2,26.6,93.2,26.5,93.2l-0.3,0.8l-2.8-1.2c0,0-0.1-0.1,0-0.1l0.1-0.3
			c0,0,0,0,0.1,0l0.2,0.1l1.5-3.5l-0.2-0.1c0,0,0-0.1,0-0.1l0.1-0.3c0,0,0,0,0.1,0l2.7,1.1l-0.3,0.7c0,0-0.1,0.1-0.1,0l-0.3-0.1
			c0,0,0,0,0-0.1l0.1-0.2L26,89.2l-0.6,1.3l1.6,0.7l-0.2,0.5l-1.6-0.7l-0.6,1.5l1.5,0.7l0.1-0.2c0,0,0.1,0,0.1,0L26.5,93.2z"/>
		<path id="XMLID_227_" class="st2" d="M33.8,91.3c0,0,0.1,0.1,0,0.1l-0.1,0.3c0,0,0,0-0.1,0l-0.2,0l-1.9,1.1l0.8,2.5l0.2,0.1
			c0,0,0,0.1,0,0.1l-0.1,0.3c0,0,0,0-0.1,0l-0.6-0.2L31,93.2l-0.5,0.3l-0.3,1.2l0.2,0.1c0,0,0,0.1,0,0.1l-0.1,0.3c0,0,0,0-0.1,0
			l-1-0.3c0,0-0.1-0.1,0-0.1l0.1-0.3c0,0,0,0,0.1,0l0.2,0l1-3.7l-0.2-0.1c0,0,0-0.1,0-0.1l0.1-0.3c0,0,0,0,0.1,0l1,0.3
			c0,0,0.1,0.1,0,0.1L31.4,91c0,0,0,0-0.1,0l-0.2,0l-0.5,1.7l2-1.2l-0.2-0.1c0,0,0-0.1,0-0.1l0.1-0.3c0,0,0,0,0.1,0L33.8,91.3z"/>
		<path id="XMLID_225_" class="st2" d="M44.7,92.6c0,0,0.1,0,0.1,0.1l0,0.3c0,0,0,0-0.1,0l-0.2,0l-1.3,4c0,0.1-0.2,0.2-0.3,0.2
			l-0.5,0c-0.1,0-0.1,0-0.1-0.1l-0.7-3.7l0,0l-1,3.4c0,0.1-0.1,0.3-0.3,0.3l-0.5,0c-0.1,0-0.1,0-0.1-0.1L39,92.7l-0.2,0
			c0,0-0.1,0-0.1-0.1l0-0.3c0,0,0,0,0.1,0l1,0.1c0,0,0.1,0,0.1,0.1l0,0.3c0,0,0,0-0.1,0l-0.2,0l0.6,3.6h0l1.1-3.7
			c0.1-0.2,0.2-0.3,0.3-0.3l0.4,0c0.1,0,0.1,0,0.1,0.1l0.7,4h0l1-3.6l-0.2,0c0,0-0.1,0-0.1-0.1l0-0.3c0,0,0,0,0.1,0L44.7,92.6z"/>
		<path id="XMLID_223_" class="st2" d="M48.6,96.6C48.6,96.6,48.7,96.6,48.6,96.6l0.1,0.4c0,0,0,0.1,0,0.1l-1.1,0.1
			c0,0-0.1,0-0.1-0.1l0-0.3c0,0,0,0,0-0.1l0.2,0l-0.3-3.8l-0.2,0c0,0-0.1,0-0.1-0.1l0-0.3c0,0,0-0.1,0-0.1l1.1-0.1
			c0,0,0.1,0,0.1,0.1l0,0.3c0,0,0,0,0,0.1l-0.2,0l0.3,3.8L48.6,96.6z"/>
		<path id="XMLID_221_" class="st2" d="M54.4,94.8c0.1,0.8-0.3,1.4-1.4,1.6c-0.6,0.1-1,0.1-1.4,0l-0.1-0.7c0-0.1,0-0.1,0.1-0.1
			l0.4,0c0,0,0.1,0,0.1,0l0.1,0.3c0.3,0,0.6,0,0.8,0c0.6-0.1,0.9-0.4,0.8-0.9c-0.1-0.5-0.3-0.6-1.3-0.8c-0.7-0.1-1.3-0.4-1.4-1.1
			c-0.1-0.8,0.3-1.4,1.4-1.6c0.4-0.1,0.7-0.1,1.1-0.1l0.2,0.8c0,0.1,0,0.1-0.1,0.1l-0.4,0c0,0-0.1,0-0.1,0L53,92.1
			c-0.2,0-0.3,0-0.5,0.1c-0.6,0.1-0.9,0.4-0.8,0.9c0.1,0.4,0.4,0.5,1.3,0.7C53.9,93.8,54.3,94.2,54.4,94.8z"/>
		<path id="XMLID_218_" class="st2" d="M57.5,90.3c1.8-0.6,2.6,0.1,3,1.5c0.6,1.7,0,2.6-1.6,3.1l-1.2,0.4c0,0-0.1,0-0.1-0.1
			l-0.1-0.3c0,0,0,0,0-0.1l0.2-0.1l-1.2-3.7l-0.2,0c0,0-0.1,0-0.1-0.1l-0.1-0.3c0,0,0-0.1,0-0.1L57.5,90.3z M59,94.3
			c1.2-0.4,1.2-1.4,0.9-2.3c-0.3-1-0.8-1.6-2.2-1.2L57.2,91l1.2,3.5L59,94.3z"/>
		<path id="XMLID_215_" class="st2" d="M66.4,89.1c0.7,1.5,0.4,2.5-0.6,3c-1.1,0.5-2.1,0.1-2.8-1.3c-0.5-1-0.7-2.4,0.6-3
			C64.7,87.2,65.7,87.8,66.4,89.1z M63.6,90.5c0.4,0.7,1,1.6,1.9,1.1c0.8-0.4,0.8-1.2,0.2-2.2c-0.4-0.7-1-1.6-1.9-1.1
			C62.9,88.8,63.2,89.8,63.6,90.5z"/>
		<path id="XMLID_213_" class="st2" d="M73.8,86.5c0,0,0.1,0,0.1,0l0.2,0.3c0,0,0,0.1,0,0.1l-0.8,0.6c0,0-0.1,0-0.1,0l-0.2-0.3
			c0,0,0,0,0-0.1l0.1-0.1l-1.8-2.4l0.6,3c0,0.1,0,0.2-0.1,0.3c-0.1,0-0.1,0.1-0.2,0.1c-0.1,0-0.1,0-0.2,0l-2.7-1.6l1.6,2.5l0.2-0.1
			c0,0,0.1,0,0.1,0L71,89c0,0,0,0.1,0,0.1l-0.8,0.6c0,0-0.1,0-0.1,0l-0.2-0.3c0,0,0,0,0-0.1l0.1-0.1L67.9,86l-0.2,0.1
			c0,0-0.1,0-0.1,0l-0.2-0.3c0,0,0-0.1,0-0.1l0.6-0.4c0,0,0.1,0,0.1,0l3.2,1.9l-0.8-3.6c0-0.1,0-0.1,0-0.1l0.6-0.4c0,0,0.1,0,0.1,0
			l0.2,0.3c0,0,0,0,0,0.1l-0.1,0.1l2.3,3.1L73.8,86.5z"/>
	</g>
	<g id="XMLID_209_">
		<g id="XMLID_210_">
			<path id="XMLID_54_" class="st0" d="M3.2,73.6l5-4.6l1.1-1.1l0.6,1c1.1,1.8,2.3,3.5,3.6,5.1l1.7-1.5c-2.3-2.8-4.2-5.9-5.6-9.3
				c-0.5-1.3-1-2.6-1.3-3.9l-2.7,7L0,67.1c0,0,0,0,0,0.1L3.2,73.6z"/>
		</g>
	</g>
	<g id="XMLID_205_">
		<path id="XMLID_53_" class="st3" d="M70.7,9.3c0,4.4,0,8.7,0,13.1c-3.5-1.3-7.8-0.3-10,1.4c0-4.3,0-8.7,0-13
			C62.6,8.9,67.3,8,70.7,9.3z"/>
		<path id="XMLID_52_" class="st3" d="M49.6,9.3c0,4.4,0,8.7,0,13.1c3.5-1.3,7.8-0.3,10,1.4c0-4.3,0-8.7,0-13
			C57.7,8.9,53,8.1,49.6,9.3z"/>
		<path id="XMLID_51_" class="st0" d="M73.7,19.8L73.7,19.8c-0.5-0.1-0.9-0.1-1.2-0.1v-4.3c0.3,0,0.6,0,1.1,0.1l0.1,0
			c1,0,1.1-0.5,1.1-0.5c-0.2-0.5-0.7-0.8-1.1-0.8l0,0c-0.5-0.1-0.9-0.1-1.1-0.1v-3.6h-0.9v13.2c-4.8-1-8.5-0.5-11.5,1.7
			c-2.9-2.2-6.6-2.7-11.5-1.7V10.5h-0.9v3.6c-0.2,0-0.4,0-0.7,0.1V14c0-0.1-0.1-0.2-0.2-0.2L45.6,14c-0.1,0-0.2,0.1-0.2,0.2v1.5
			c0,0.1,0.1,0.2,0.2,0.2l1.2-0.1c0.1,0,0.2-0.1,0.2-0.2v-0.1c0.3,0,0.6,0,0.7-0.1v4.3c-0.2,0-0.4,0-0.7,0.1v-0.1
			c0-0.1-0.1-0.2-0.2-0.2l-1.2,0.1c-0.1,0-0.2,0.1-0.2,0.2v1.5c0,0.1,0.1,0.2,0.2,0.2l1.2-0.1c0.1,0,0.2-0.1,0.2-0.2V21
			c0.3,0,0.6,0,0.7-0.1v3.9l0.5-0.1c5-1.2,8.7-0.7,11.5,1.6l0.3,0.2l0.3-0.2C63.3,24,67,23.5,72,24.7l0.5,0.1v-3.9
			c0.3,0,0.6,0,1.1,0.1l0.1,0c1,0,1.1-0.5,1.1-0.5C74.6,20,74.1,19.8,73.7,19.8z"/>
	</g>
	<g id="XMLID_202_">
		<g id="XMLID_203_">
			<path id="XMLID_50_" class="st0" d="M84.8,73.6l-5-4.6l-1.1-1.1l-0.6,1c-1.1,1.8-2.3,3.5-3.6,5.1l-1.7-1.5
				c2.3-2.8,4.2-5.9,5.6-9.3c0.5-1.3,1-2.6,1.3-3.9l2.7,7l5.7,0.8c0,0,0,0,0,0.1L84.8,73.6z"/>
		</g>
	</g>
	<g id="XMLID_179_">
		<g id="XMLID_192_">
			<path id="XMLID_49_" class="st0" d="M45.8,64.2c2,1,3.7,1.5,4.8,1.4c0,0,0.1,0,0.1,0c0.4,0,0.8-0.1,1.2-0.3
				c0.3-0.2,0.5-0.4,0.7-0.6c0.2-0.3,0.3-0.6,0.3-0.9c-0.1,0-0.3,0.1-0.4,0.1c0,0-0.1,0-0.1,0c-1.2,0.2-2.6,0-4.6-0.5
				c-0.3,0.4-1,0.6-1.7,0.4C45.9,63.9,45.9,64,45.8,64.2z"/>
			<path id="XMLID_48_" class="st0" d="M48.6,53.1c-0.1,0.1-0.1,0.2-0.2,0.4c-0.3,0.5-0.7,0.9-1.1,1.1c0,0.1,0,0.3,0,0.4
				c0.9-0.4,1.7-0.8,2.6-1.3c3.2-1.7,5.5-3.7,6.2-5c0,0,0.1-0.1,0.1-0.1c0.2-0.4,0.4-0.9,0.4-1.4c0-0.8-0.3-1.5-0.8-1.9
				c-0.7,1.6-1.9,3.3-3.6,5C51.1,51.4,49.9,52.4,48.6,53.1z"/>
			<path id="XMLID_47_" class="st0" d="M48.2,61.3c-0.3,0.3-0.8,0.6-1.4,0.7c-0.1,0-0.2,0-0.3,0c0,0.1-0.1,0.2-0.1,0.3
				c2.9,0.8,5.3,1,6.6,0.6c0,0,0.1,0,0.1,0c0.4-0.1,0.8-0.3,1.1-0.6c0.3-0.3,0.4-0.5,0.5-0.8c0.1-0.4,0.1-0.7,0.1-0.7
				c-0.1,0.1-0.7,0.3-0.7,0.3C53,61.4,51.1,61.5,48.2,61.3z"/>
			<path id="XMLID_46_" class="st0" d="M56.4,53.8c-1.1,1.2-3.8,2.5-7.5,3.4c-0.2,0.4-0.7,0.7-1.2,0.9c-0.2,0.1-0.3,0.1-0.5,0.1
				c0,0.1,0,0.2,0,0.4c0.3,0,0.6,0,0.9,0c3.7-0.2,6.6-1,7.8-1.9c0,0,0.1-0.1,0.1-0.1c0.3-0.3,0.7-0.7,0.9-1.1
				c0.2-0.4,0.3-0.7,0.3-1.1c0-0.4-0.1-0.7-0.3-1.1c-0.1,0.1-0.2,0.3-0.3,0.4C56.5,53.7,56.5,53.7,56.4,53.8z"/>
			<path id="XMLID_45_" class="st0" d="M50.1,66.5c-1.2,0-2.8-0.6-4.8-1.5c-0.1,0.2-0.2,0.3-0.3,0.4c1.5,0.8,2.8,1.3,3.9,1.6
				c-0.1,0.1-0.1,0.1-0.2,0.2c-0.2,0.2-0.5,0.4-0.8,0.5c-0.4,0.1-0.9,0.1-1.2,0.1c0,0-0.1,0-0.1,0c-0.7-0.1-1.5-0.5-2.5-1.1
				c-0.1,0.1-0.2,0.2-0.4,0.3c1,0.7,1.9,1.1,2.7,1.3c-0.2,0.1-0.4,0.2-0.6,0.3c-0.3,0.1-0.7,0.1-1,0c0,0-0.1,0-0.1,0
				c-0.5-0.1-1.1-0.4-1.9-0.9c-0.2,0.1-0.3,0.2-0.5,0.2C42,67.9,41.6,68,41.2,68c-1,0-1.9-0.4-2.7-1.2c0,0-0.3,0.2-0.2,0.2
				c0.8,0.9,1.9,1.4,2.9,1.4c0.3,0,1.2-0.1,1.5-0.3c0.9,0.6,1.6,0.9,2.2,1c0,0,0.1,0,0.1,0c0.3,0.1,0.7,0.1,1.1-0.1
				c0.3-0.1,0.5-0.2,0.7-0.4c0.1-0.1,0.2-0.2,0.2-0.2c0.4,0,0.8,0,1.2-0.1c0.4-0.1,0.7-0.3,0.9-0.5c0.2-0.2,0.4-0.4,0.5-0.6
				c0.6,0,1-0.1,1-0.1c0.2,0,0.5-0.1,0.7-0.3c0.1-0.1,0.2-0.3,0.3-0.4c-0.5,0.1-0.9,0.2-1.4,0.2C50.2,66.6,50.1,66.5,50.1,66.5z"/>
			<path id="XMLID_44_" class="st0" d="M51.9,53.6C51,54.1,50,54.6,49.1,55c-0.1,0.2-0.2,0.4-0.4,0.5c-0.4,0.5-0.9,0.8-1.4,0.9
				c0,0.1,0,0.3,0,0.4c0.5-0.1,1.1-0.3,1.6-0.4c3.5-1,6.2-2.3,7.2-3.5c0,0,0.1-0.1,0.1-0.1c0.3-0.3,0.6-0.8,0.7-1.2
				c0.2-0.8,0-1.4-0.4-1.9C55.6,51,53.9,52.3,51.9,53.6z"/>
			<path id="XMLID_43_" class="st0" d="M56.1,57.1c0,0-0.1,0.1-0.1,0.1c-1.2,0.9-3.8,1.6-7.2,1.9l0,0c-0.2,0.2-0.5,0.5-0.8,0.6
				c-0.4,0.2-0.7,0.3-1.1,0.3c0,0.1-0.1,0.2-0.1,0.3c0,0,0,0,0.1,0c3.7,0.4,6.6,0.2,8-0.6c0,0,0.1-0.1,0.1-0.1
				c0.4-0.2,0.8-0.5,1.1-0.9c0.2-0.3,0.4-0.7,0.4-1c0.1-0.4,0.1-0.7-0.1-1.1C56.4,57,56.3,57.1,56.1,57.1z"/>
			<path id="XMLID_42_" class="st0" d="M48.7,50.2c0,0.4-0.1,0.9-0.4,1.4c-0.3,0.5-0.7,0.9-1.1,1.1c0,0.1,0,0.3,0,0.4
				c1.5-0.8,3-1.9,4.3-3.3c1.6-1.6,2.8-3.3,3.5-4.9c0.2-0.4,0.3-0.9,0.2-1.5c-0.1-1.1-0.7-2-1.4-2.3c0,0.2,0,0.4,0,0.7
				c-0.2,1.5-1.6,4.2-4,7C49.5,49.3,49.1,49.8,48.7,50.2z"/>
			<path id="XMLID_41_" class="st0" d="M49.3,48.5c2.4-2.8,3.7-5.5,3.9-7c0.1-1-0.1-1.9-0.7-2.2c0,1.4-1.9,4.7-4.9,8.5
				c0.3,0.5,0.2,1.4-0.3,2.2c-0.2,0.3-0.2,0.3-0.5,0.6c0,0.2,0.1,0.3,0.1,0.5C47.8,50.3,48.6,49.4,49.3,48.5z"/>
		</g>
		<path id="XMLID_40_" d="M30.7,50.1c-0.1,0-0.1-0.1-0.2-0.1c0,0.3,0,0.7,0,1c0,0.9-0.1,1.8-0.3,2.5c0,0.2,0,0.4,0.2,0.4
			c0.1,0,0.1,0,0.2,0l0,0c0.3-0.7,0.7-1.4,1.1-2.1c0.1-0.1,0.2-0.3,0.2-0.4C31.8,50.9,31.3,50.3,30.7,50.1z"/>
		<path id="XMLID_180_" d="M58.1,54.3c0-0.6-0.2-1.1-0.5-1.5c0.3-0.5,0.5-1.1,0.5-1.9c0-0.8-0.3-1.5-0.7-2c0.3-0.5,0.4-1.1,0.4-1.8
			c0-1.2-0.6-2.2-1.4-2.7c0-0.2,0-0.4,0-0.7c-0.1-1.8-0.8-2.9-2-3.3c-0.3-1.3-1.1-2.4-1.9-3c-0.9,3.9-3.8,7.7-4.9,9.2
			c-1.7,2.4-2.1,4.7-3,7.4c-1.1,3.2-1.9,6.7-4.9,8.7c0-0.3,0-0.7,0.1-1c0.5-4.4,4.1-11.6,2.8-15.8c-0.1-0.3-0.2-0.5-0.3-0.7
			c-1.3-2.9-4.2-3.3-7.1-2c-1.8,0.8-3.8,1.5-4.6,3.5c-0.4,0.8-0.5,1.6-0.4,2.3c0,0.2,0.1,0.3,0.2,0.3c0.2,0.1,0.4,0,0.5-0.3
			c0.1-0.1,0.1-0.3,0.2-0.6c0,0,0,0,0,0c0,0,0-0.1,0-0.2c0.1-0.2,0.3-0.3,0.6-0.3c0.2,0.1,0.3,0.3,0.2,0.6c0,0,0,0.1-0.1,0.1
			c-0.1,0.1-0.1,0.2-0.2,0.2c-0.1,0.2-0.2,0.4-0.2,0.6c0,0.2,0.1,0.5,0.3,0.6c0,0,0,0,0.1,0c0.8,0.3,1.8-0.1,2.4-1
			c0.2-0.3,0.4-0.7,0.6-1.1c0.3-0.6,0.3-1.3,0.8-1.8c0.8-0.9,3.2-1.6,4.2-0.3c2,2.4-0.2,5.6-1.6,7.6c-1.7,2.6-4.2,5.6-5.4,8.5
			c-3.2,7.6,2.3,15.1,11,15.1c5.6,0,9.1-2.4,11-5.3c-3.8-0.3-5.9-2.8-5.9-2.8s0.8-0.1,1.3-0.9c0,0,0.4,0,0.7-0.1
			c0.8-0.1,1.5-0.5,1.8-1.4c0.2-0.7,0.3-1.2,0.3-1.2s0.5-0.2,0.8-0.9c0.2-0.4,0.2-0.6,0.2-1c0.9-0.3,1.6-1.1,1.9-2
			c0.2-0.5,0.2-0.8,0.2-1.2c1-0.5,1.7-1.9,1.7-3.1c0-0.4-0.1-0.7-0.3-1.1C57.9,55.8,58.1,55.1,58.1,54.3z M56.6,57.9
			c-0.1,0.4-0.2,0.7-0.4,1c-0.3,0.4-0.7,0.7-1.1,0.9c0,0-0.1,0.1-0.1,0.1c-1.4,0.7-4.3,1-8,0.6c0,0,0,0-0.1,0c0-0.1,0.1-0.2,0.1-0.3
			c0.3,0,0.7-0.1,1.1-0.3c0.3-0.2,0.6-0.4,0.8-0.6l0,0c3.4-0.3,6-1,7.2-1.9c0,0,0.1-0.1,0.1-0.1c0.1-0.1,0.2-0.2,0.4-0.3
			C56.6,57.2,56.7,57.5,56.6,57.9z M54.8,61.4c-0.1,0.3-0.3,0.6-0.5,0.8c-0.3,0.3-0.7,0.5-1.1,0.6c0,0-0.1,0-0.1,0
			c-1.2,0.4-3.7,0.2-6.6-0.6c0-0.1,0.1-0.2,0.1-0.3c0.1,0,0.2,0,0.3,0c0.6-0.1,1.1-0.3,1.4-0.7c2.8,0.2,4.8,0.1,5.9-0.3
			c0,0,0.6-0.2,0.7-0.3C54.9,60.7,54.9,61,54.8,61.4z M50.7,67.1c0,0-0.4,0.1-1,0.1c-0.1,0.2-0.3,0.4-0.5,0.6
			c-0.3,0.2-0.5,0.4-0.9,0.5c-0.4,0.1-0.8,0.1-1.2,0.1c-0.1,0.1-0.1,0.2-0.2,0.2c-0.2,0.2-0.4,0.3-0.7,0.4c-0.3,0.1-0.8,0.1-1.1,0.1
			c0,0-0.1,0-0.1,0c-0.6-0.1-1.3-0.4-2.2-1c-0.3,0.2-1.1,0.3-1.5,0.3c-1.1,0-2.1-0.5-2.9-1.4c0,0,0.2-0.3,0.2-0.2
			c0.8,0.8,1.7,1.2,2.7,1.2c0.3,0,0.8-0.1,1.1-0.2c0.2-0.1,0.3-0.1,0.5-0.2c0.7,0.5,1.4,0.8,1.9,0.9c0,0,0.1,0,0.1,0
			c0.3,0.1,0.7,0.1,1,0c0.3-0.1,0.5-0.2,0.6-0.3c-0.7-0.2-1.6-0.6-2.7-1.3c0.1-0.1,0.2-0.2,0.4-0.3c1,0.6,1.9,1,2.5,1.1
			c0,0,0.1,0,0.1,0c0.4,0.1,0.8,0.1,1.2-0.1c0.3-0.1,0.6-0.3,0.8-0.5c0.1-0.1,0.1-0.1,0.2-0.2c-1.1-0.3-2.4-0.8-3.9-1.6
			c0.1-0.1,0.2-0.3,0.3-0.4c1.9,1,3.6,1.5,4.8,1.5c0,0,0.2,0,0.2,0c0.4,0,0.9,0,1.4-0.2c-0.1,0.2-0.2,0.3-0.3,0.4
			C51.1,67,50.9,67.1,50.7,67.1z M50.7,65.6c0,0-0.1,0-0.1,0c-1,0.1-2.8-0.4-4.8-1.4c0.1-0.1,0.1-0.3,0.2-0.4c0.7,0.2,1.4,0,1.7-0.4
			c2,0.5,3.5,0.7,4.6,0.5c0,0,0.1,0,0.1,0c0.1,0,0.3-0.1,0.4-0.1c0,0.3-0.1,0.6-0.3,0.9c-0.2,0.3-0.4,0.5-0.7,0.6
			C51.5,65.5,51.1,65.6,50.7,65.6z M53.2,41.5c-0.1,1.5-1.5,4.2-3.9,7c-0.8,0.9-1.6,1.8-2.4,2.6c0-0.2-0.1-0.3-0.1-0.5
			c0.3-0.3,0.4-0.4,0.5-0.6c0.4-0.8,0.6-1.6,0.3-2.2c3-3.7,4.8-7.1,4.9-8.5C53.1,39.6,53.3,40.5,53.2,41.5z M53.9,41.2
			c0.7,0.3,1.3,1.2,1.4,2.3c0,0.5-0.1,1.1-0.2,1.5c-0.7,1.5-1.9,3.2-3.5,4.9c-1.4,1.4-2.9,2.5-4.3,3.3c0-0.1,0-0.3,0-0.4
			c0.4-0.2,0.8-0.6,1.1-1.1c0.3-0.5,0.4-1,0.4-1.4c0.4-0.4,0.8-0.9,1.2-1.3c2.4-2.8,3.8-5.4,4-7C53.9,41.7,53.9,41.4,53.9,41.2z
			 M56.9,51.5c-0.1,0.5-0.4,0.9-0.7,1.2c0,0-0.1,0.1-0.1,0.1c-1,1.2-3.7,2.5-7.2,3.5c-0.5,0.1-1.1,0.3-1.6,0.4c0-0.1,0-0.3,0-0.4
			c0.5-0.1,1-0.4,1.4-0.9c0.2-0.2,0.3-0.4,0.4-0.5c0.9-0.4,1.9-0.9,2.8-1.5c2-1.2,3.6-2.5,4.6-3.9C57,50.1,57.1,50.8,56.9,51.5z
			 M56.3,48.6c0,0-0.1,0.1-0.1,0.1c-0.7,1.4-3,3.3-6.2,5c-0.9,0.5-1.8,0.9-2.6,1.3c0-0.1,0-0.3,0-0.4c0.4-0.2,0.8-0.6,1.1-1.1
			c0.1-0.1,0.1-0.2,0.2-0.4c1.2-0.8,2.4-1.7,3.6-2.8c1.7-1.6,2.9-3.4,3.6-5c0.5,0.4,0.8,1.1,0.8,1.9C56.6,47.7,56.5,48.2,56.3,48.6z
			 M55.9,56.5c0,0-0.1,0.1-0.1,0.1c-1.2,0.9-4.1,1.7-7.8,1.9c-0.3,0-0.6,0-0.9,0c0-0.1,0-0.2,0-0.4c0.2,0,0.3-0.1,0.5-0.1
			c0.6-0.2,1-0.5,1.2-0.9c3.7-0.9,6.4-2.2,7.5-3.4c0,0,0.1-0.1,0.1-0.1c0.1-0.1,0.2-0.2,0.3-0.4c0.2,0.3,0.3,0.6,0.3,1.1
			c0,0.4-0.1,0.7-0.3,1.1C56.7,55.8,56.3,56.2,55.9,56.5z"/>
	</g>
	<g id="XMLID_115_">
		<g id="XMLID_161_">
			<g id="XMLID_171_">
				<path id="XMLID_177_" class="st2" d="M53.2,15.5h-1.9v-3.1h1.9c0,0,0,0.1,0,0.3c0,0.1,0,0.2,0,0.3H52v0.7h1c0,0,0,0.1,0,0.3
					c0,0.1,0,0.2,0,0.3h-1v0.8h1.3c0,0,0,0.1,0,0.3C53.3,15.3,53.3,15.4,53.2,15.5z"/>
				<path id="XMLID_174_" class="st2" d="M56,15.5c-0.1,0-0.2,0-0.4,0c-0.1,0-0.3,0-0.3,0l-0.6-1.1h-0.3v1.1c-0.1,0-0.2,0-0.3,0
					c-0.1,0-0.2,0-0.3,0v-3.1c0.2,0,0.6,0,0.9,0c0.8,0,1.2,0.3,1.2,1c0,0.4-0.2,0.8-0.5,0.9L56,15.5z M54.7,12.9c-0.1,0-0.2,0-0.3,0
					v0.9h0.2c0.4,0,0.5-0.1,0.5-0.5C55.1,13,55,12.9,54.7,12.9z"/>
				<path id="XMLID_172_" class="st2" d="M58.2,15.5h-1.9v-3.1h1.9c0,0,0,0.1,0,0.3c0,0.1,0,0.2,0,0.3H57v0.7h1c0,0,0,0.1,0,0.3
					c0,0.1,0,0.2,0,0.3h-1v0.8h1.3c0,0,0,0.1,0,0.3C58.3,15.3,58.3,15.4,58.2,15.5z"/>
			</g>
			<g id="XMLID_162_">
				<path id="XMLID_168_" class="st2" d="M52.3,18.6H52v1.1c-0.1,0-0.2,0-0.3,0c-0.1,0-0.2,0-0.3,0v-3.1c0.3,0,0.7,0,0.9,0
					c0.7,0,1.2,0.2,1.2,1C53.4,18.3,53,18.6,52.3,18.6z M52.3,17.1c-0.1,0-0.2,0-0.3,0V18h0.3c0.3,0,0.5-0.1,0.5-0.5
					C52.8,17.3,52.6,17.1,52.3,17.1z"/>
				<path id="XMLID_166_" class="st2" d="M55.8,19.7h-1.9v-3.1h1.9c0,0,0,0.1,0,0.3c0,0.1,0,0.2,0,0.3h-1.2v0.7h1c0,0,0,0.1,0,0.3
					c0,0.1,0,0.2,0,0.3h-1v0.8h1.3c0,0,0,0.1,0,0.3C55.8,19.5,55.8,19.6,55.8,19.7z"/>
				<path id="XMLID_163_" class="st2" d="M58.5,19.7c-0.1,0-0.2,0-0.4,0c-0.1,0-0.3,0-0.3,0l-0.6-1.1h-0.3v1.1c-0.1,0-0.2,0-0.3,0
					c-0.1,0-0.2,0-0.3,0v-3.1c0.2,0,0.6,0,0.9,0c0.8,0,1.2,0.3,1.2,1c0,0.4-0.2,0.8-0.5,0.9L58.5,19.7z M57.1,17.1
					c-0.1,0-0.2,0-0.3,0V18h0.2c0.4,0,0.5-0.1,0.5-0.5C57.6,17.2,57.4,17.1,57.1,17.1z"/>
			</g>
		</g>
		<g id="XMLID_146_">
			<g id="XMLID_154_">
				<path id="XMLID_158_" class="st2" d="M65.8,15.5c-0.1,0-0.2,0-0.3,0c-0.1,0-0.3,0-0.3,0l-0.2-0.6h-1.1l-0.2,0.6
					c-0.1,0-0.2,0-0.3,0c-0.1,0-0.3,0-0.3,0l1.1-3.1c0.1,0,0.2,0,0.3,0c0.1,0,0.3,0,0.3,0L65.8,15.5z M64.7,14.3l-0.3-0.9
					c0-0.1-0.1-0.2-0.1-0.4h0c0,0.1-0.1,0.3-0.1,0.4L64,14.3H64.7z"/>
				<path id="XMLID_155_" class="st2" d="M68.3,15.5c-0.1,0-0.2,0-0.4,0c-0.1,0-0.3,0-0.3,0L67,14.4h-0.3v1.1c-0.1,0-0.2,0-0.3,0
					c-0.1,0-0.2,0-0.3,0v-3.1c0.2,0,0.6,0,0.9,0c0.8,0,1.2,0.3,1.2,1c0,0.4-0.2,0.8-0.5,0.9L68.3,15.5z M67,12.9c-0.1,0-0.2,0-0.3,0
					v0.9h0.2c0.4,0,0.5-0.1,0.5-0.5C67.5,13,67.3,12.9,67,12.9z"/>
			</g>
			<g id="XMLID_147_">
				<path id="XMLID_152_" class="st2" d="M64.4,17.2h-0.8v2.5c-0.1,0-0.2,0-0.3,0c-0.1,0-0.2,0-0.3,0v-2.5h-0.8c0-0.1,0-0.2,0-0.3
					s0-0.2,0-0.3h2.3c0,0.1,0,0.2,0,0.3S64.4,17.1,64.4,17.2z"/>
				<path id="XMLID_150_" class="st2" d="M66.7,19.7h-1.9v-3.1h1.9c0,0,0,0.1,0,0.3c0,0.1,0,0.2,0,0.3h-1.2v0.7h1c0,0,0,0.1,0,0.3
					c0,0.1,0,0.2,0,0.3h-1v0.8h1.3c0,0,0,0.1,0,0.3C66.7,19.5,66.7,19.6,66.7,19.7z"/>
				<path id="XMLID_148_" class="st2" d="M68.1,19.7c-0.3,0-0.7-0.1-1-0.2c0-0.1,0-0.1,0-0.2c0-0.1,0-0.2,0-0.3
					c0.3,0.1,0.6,0.2,0.9,0.2c0.3,0,0.5-0.1,0.5-0.4c0-0.2-0.1-0.3-0.6-0.5c-0.5-0.1-0.8-0.4-0.8-0.9c0-0.6,0.5-0.9,1.1-0.9
					c0.3,0,0.6,0,0.7,0.1c0,0,0,0.1,0,0.2c0,0.1,0,0.2,0,0.3c-0.2-0.1-0.5-0.1-0.7-0.1c-0.3,0-0.5,0.1-0.5,0.3
					c0,0.2,0.2,0.3,0.6,0.4c0.5,0.2,0.9,0.4,0.9,0.9C69.1,19.4,68.7,19.7,68.1,19.7z"/>
			</g>
		</g>
		<g id="XMLID_132_">
			<g id="XMLID_139_">
				<path id="XMLID_144_" class="st2" d="M20.5,14.1c0.1,0.2,0.1,0.4,0.2,0.6h0c0-0.2,0.1-0.4,0.2-0.6l0.3-1
					c0.1-0.2,0.1-0.5,0.1-0.8c0.1,0,0.2,0,0.3,0c0.1,0,0.2,0,0.3,0c0,0.3-0.1,0.6-0.2,0.9L21,15.5c-0.1,0-0.2,0-0.3,0
					c-0.1,0-0.2,0-0.3,0l-0.8-2.1c-0.1-0.3-0.2-0.6-0.2-0.9c0.1,0,0.2,0,0.3,0c0.1,0,0.2,0,0.3,0c0,0.3,0,0.5,0.1,0.8L20.5,14.1z"/>
				<path id="XMLID_142_" class="st2" d="M23,15.5c-0.1,0-0.2,0-0.3,0c-0.1,0-0.2,0-0.3,0v-3.1c0.1,0,0.2,0,0.3,0c0.1,0,0.2,0,0.3,0
					V15.5z"/>
				<path id="XMLID_140_" class="st2" d="M25.7,13h-0.8v2.5c-0.1,0-0.2,0-0.3,0c-0.1,0-0.2,0-0.3,0V13h-0.8c0-0.1,0-0.2,0-0.3
					s0-0.2,0-0.3h2.3c0,0.1,0,0.2,0,0.3S25.7,12.9,25.7,13z"/>
			</g>
			<g id="XMLID_133_">
				<path id="XMLID_136_" class="st2" d="M22,19.7c-0.1,0-0.2,0-0.3,0c-0.1,0-0.3,0-0.3,0l-0.2-0.6H20l-0.2,0.6c-0.1,0-0.2,0-0.3,0
					c-0.1,0-0.3,0-0.3,0l1.1-3.1c0.1,0,0.2,0,0.3,0c0.1,0,0.3,0,0.3,0L22,19.7z M20.9,18.5l-0.3-0.9c0-0.1-0.1-0.2-0.1-0.4h0
					c0,0.1-0.1,0.3-0.1,0.4l-0.3,0.9H20.9z"/>
				<path id="XMLID_134_" class="st2" d="M25.5,19.7c-0.1,0-0.2,0-0.3,0c-0.1,0-0.3,0-0.3,0l-0.1-1.8l-0.7,1.5c0,0-0.2,0-0.2,0
					c-0.1,0-0.2,0-0.2,0L23,17.8l-0.1,1.8c-0.1,0-0.2,0-0.3,0c-0.1,0-0.2,0-0.3,0l0.1-3.1c0.1,0,0.2,0,0.3,0c0.1,0,0.2,0,0.3,0
					l0.9,2.1l0.9-2.1c0.1,0,0.2,0,0.3,0c0.1,0,0.2,0,0.3,0L25.5,19.7z"/>
			</g>
		</g>
		<g id="XMLID_116_">
			<g id="XMLID_125_">
				<path id="XMLID_130_" class="st2" d="M32.1,15.5h-1.9v-3.1H32c0,0,0,0.1,0,0.3c0,0.1,0,0.2,0,0.3h-1.2v0.7h1c0,0,0,0.1,0,0.3
					c0,0.1,0,0.2,0,0.3h-1v0.8h1.3c0,0,0,0.1,0,0.3C32.1,15.3,32.1,15.4,32.1,15.5z"/>
				<path id="XMLID_128_" class="st2" d="M32.8,14.6l0.6-0.8l-0.5-0.7c-0.2-0.2-0.3-0.5-0.3-0.7c0.1,0,0.2,0,0.3,0
					c0.1,0,0.2,0,0.3,0c0,0.2,0.1,0.4,0.3,0.5l0.3,0.5l0.3-0.5c0.1-0.2,0.2-0.3,0.2-0.5c0.1,0,0.2,0,0.3,0c0.1,0,0.2,0,0.3,0
					c0,0.3-0.2,0.5-0.3,0.8l-0.5,0.7l0.6,0.8c0.2,0.3,0.3,0.6,0.3,0.8c-0.1,0-0.2,0-0.3,0c-0.1,0-0.2,0-0.3,0c0-0.2-0.1-0.4-0.2-0.6
					l-0.4-0.6l-0.4,0.6c-0.1,0.2-0.2,0.4-0.2,0.6c-0.1,0-0.2,0-0.3,0c-0.1,0-0.2,0-0.3,0C32.5,15.2,32.5,15,32.8,14.6z"/>
				<path id="XMLID_126_" class="st2" d="M37.3,13c-0.2-0.1-0.5-0.1-0.7-0.1c-0.5,0-0.9,0.4-0.9,1c0,0.6,0.3,1,0.8,1
					c0.2,0,0.5,0,0.7-0.1c0,0.1,0.1,0.2,0.1,0.3c0,0.1,0,0.2,0,0.2c-0.2,0.1-0.5,0.2-0.8,0.2c-1,0-1.5-0.6-1.5-1.5
					c0-0.9,0.5-1.6,1.5-1.6c0.2,0,0.5,0.1,0.8,0.2c0,0,0,0.1,0,0.2C37.3,12.9,37.3,13,37.3,13z"/>
			</g>
			<g id="XMLID_117_">
				<path id="XMLID_122_" class="st2" d="M31.2,19.7c-0.8,0-1.3-0.6-1.3-1.6c0-1,0.4-1.6,1.3-1.6c0.8,0,1.3,0.6,1.3,1.6
					C32.5,19.2,32,19.7,31.2,19.7z M31.2,17.1c-0.4,0-0.6,0.3-0.6,1c0,0.7,0.2,1,0.6,1c0.4,0,0.6-0.3,0.6-1
					C31.8,17.4,31.6,17.1,31.2,17.1z"/>
				<path id="XMLID_120_" class="st2" d="M34.7,19.7h-1.9v-3.1c0.1,0,0.2,0,0.3,0c0.1,0,0.2,0,0.3,0v2.5h1.2c0,0,0,0.1,0,0.3
					C34.7,19.5,34.7,19.6,34.7,19.7z"/>
				<path id="XMLID_118_" class="st2" d="M37.3,18.5c0,0.8-0.3,1.2-1.2,1.2c-0.9,0-1.2-0.4-1.2-1.2v-1.9c0.1,0,0.2,0,0.3,0
					c0.1,0,0.2,0,0.3,0v1.9c0,0.4,0.1,0.7,0.5,0.7c0.4,0,0.5-0.2,0.5-0.7v-1.9c0.1,0,0.2,0,0.3,0c0.1,0,0.2,0,0.3,0V18.5z"/>
			</g>
		</g>
	</g>
</g>
<g id="XMLID_145_">
</g>
<g id="XMLID_149_">
</g>
<g id="XMLID_151_">
</g>
<g id="XMLID_153_">
</g>
<g id="XMLID_156_">
</g>
<g id="XMLID_157_">
</g>
</svg>
