<svg id="Capa_1" enable-background="new 0 0 512 512" height="512" viewBox="0 0 512 512" width="512" xmlns="http://www.w3.org/2000/svg"><path d="m227.571 61.834c-20.923-36.888-60.553-61.834-105.904-61.834-67.087 0-121.667 54.58-121.667 121.667s54.58 121.667 121.667 121.667c45.352 0 84.981-24.946 105.904-61.834h284.429v-119.666zm-105.904 151.5c-50.545 0-91.667-41.122-91.667-91.667s41.122-91.667 91.667-91.667 91.666 41.122 91.666 91.667-41.121 91.667-91.666 91.667zm117.961-121.5h177.706v59.666h-177.706c2.416-9.55 3.706-19.543 3.706-29.833-.001-10.29-1.29-20.283-3.706-29.833zm242.372 59.666h-34.667v-59.666h34.667z"/><path d="m138.667 133.667c0 9.374-7.626 17-17 17s-17-7.626-17-17h-30c0 25.916 21.084 47 47 47s47-21.084 47-47z"/><path d="m74.667 76h30v30h-30z"/><path d="m138.667 76h30v30h-30z"/><path d="m121.667 268.667c-67.087 0-121.667 54.58-121.667 121.667s54.58 121.666 121.667 121.666c45.351 0 84.981-24.946 105.904-61.833h284.429v-119.667h-284.43c-20.922-36.887-60.552-61.833-105.903-61.833zm360.333 151.5h-168.333v-59.667h168.333zm-198.333 0h-44.039c2.416-9.55 3.706-19.543 3.706-29.833s-1.289-20.284-3.706-29.833h44.039zm-162 61.833c-50.545 0-91.667-41.121-91.667-91.666s41.122-91.667 91.667-91.667 91.666 41.122 91.666 91.667-41.121 91.666-91.666 91.666z"/><path d="m121.667 387.333c-25.916 0-47 21.084-47 47h30c0-9.374 7.626-17 17-17s17 7.626 17 17h30c0-25.916-21.084-47-47-47z"/><path d="m74.667 344.667h30v30h-30z"/><path d="m138.667 344.667h30v30h-30z"/></svg>